<?xml version="1.0" encoding="iso-8859-1"?>
<!-- Uploaded to: SVG Repo, www.svgrepo.com, Generator: SVG Repo Mixer Tools -->
<svg fill="#FFFFFF" height="800px" width="800px" version="1.1" id="Layer_1" xmlns="http://www.w3.org/2000/svg" xmlns:xlink="http://www.w3.org/1999/xlink" 
	 viewBox="0 0 512 512" xml:space="preserve">
<g>
	<g>
		<g>
			<path d="M458.667,245.333c-5.888,0-10.667,4.779-10.667,10.667c0,105.856-86.144,192-192,192
				c-5.888,0-10.667,4.779-10.667,10.667s4.779,10.667,10.667,10.667c117.632,0,213.333-95.701,213.333-213.333
				C469.333,250.112,464.555,245.333,458.667,245.333z"/>
			<path d="M256,64c5.888,0,10.667-4.779,10.667-10.667S261.888,42.667,256,42.667C138.368,42.667,42.667,138.368,42.667,256
				c0,5.888,4.779,10.667,10.667,10.667S64,261.888,64,256C64,150.144,150.144,64,256,64z"/>
			<path d="M245.333,373.333c0,5.888,4.779,10.667,10.667,10.667c70.592,0,128-57.408,128-128c0-5.888-4.779-10.667-10.667-10.667
				c-5.888,0-10.667,4.779-10.667,10.667c0,58.816-47.851,106.667-106.667,106.667C250.112,362.667,245.333,367.445,245.333,373.333
				z"/>
			<path d="M256,405.333c-5.888,0-10.667,4.779-10.667,10.667c0,5.888,4.779,10.667,10.667,10.667
				c94.101,0,170.667-76.565,170.667-170.667c0-5.888-4.779-10.667-10.667-10.667c-5.888,0-10.667,4.779-10.667,10.667
				C405.333,338.347,338.347,405.333,256,405.333z"/>
			<path d="M256,106.667c5.888,0,10.667-4.779,10.667-10.667S261.888,85.333,256,85.333c-94.101,0-170.667,76.565-170.667,170.667
				c0,5.888,4.779,10.667,10.667,10.667s10.667-4.779,10.667-10.667C106.667,173.653,173.653,106.667,256,106.667z"/>
			<path d="M256,0C114.837,0,0,114.837,0,256s114.837,256,256,256s256-114.837,256-256S397.163,0,256,0z M256,490.667
				c-129.387,0-234.667-105.28-234.667-234.667S126.613,21.333,256,21.333S490.667,126.613,490.667,256S385.387,490.667,256,490.667
				z"/>
			<path d="M320,256c0-35.285-28.715-64-64-64s-64,28.715-64,64s28.715,64,64,64S320,291.285,320,256z M213.333,256
				c0-23.531,19.136-42.667,42.667-42.667s42.667,19.136,42.667,42.667S279.531,298.667,256,298.667S213.333,279.531,213.333,256z"
				/>
			<path d="M277.333,256c0-11.776-9.557-21.333-21.333-21.333s-21.333,9.557-21.333,21.333s9.557,21.333,21.333,21.333
				S277.333,267.776,277.333,256z"/>
			<path d="M266.667,138.667c0-5.888-4.779-10.667-10.667-10.667c-70.592,0-128,57.408-128,128c0,5.888,4.779,10.667,10.667,10.667
				s10.667-4.779,10.667-10.667c0-58.816,47.851-106.667,106.667-106.667C261.888,149.333,266.667,144.555,266.667,138.667z"/>
		</g>
	</g>
</g>
</svg>